# Blender v2.92.0 OBJ File: ''
# www.blender.org
mtllib UnitCylinder.mtl
o Cylinder
v 0.000000 -0.500000 -0.500000
v 0.000000 0.500000 -0.500000
v 0.097545 0.500000 -0.490393
v 0.097545 -0.500000 -0.490393
v 0.191342 0.500000 -0.461940
v 0.191342 -0.500000 -0.461940
v 0.277785 0.500000 -0.415735
v 0.277785 -0.500000 -0.415735
v 0.353553 0.500000 -0.353553
v 0.353553 -0.500000 -0.353553
v 0.415735 0.500000 -0.277785
v 0.415735 -0.500000 -0.277785
v 0.461940 0.500000 -0.191342
v 0.461940 -0.500000 -0.191342
v 0.490393 0.500000 -0.097545
v 0.490393 -0.500000 -0.097545
v 0.500000 0.500000 0.000000
v 0.500000 -0.500000 -0.000000
v 0.490393 0.500000 0.097545
v 0.490393 -0.500000 0.097545
v 0.461940 0.500000 0.191342
v 0.461940 -0.500000 0.191342
v 0.415735 0.500000 0.277785
v 0.415735 -0.500000 0.277785
v 0.353553 0.500000 0.353553
v 0.353553 -0.500000 0.353553
v 0.277785 0.500000 0.415735
v 0.277785 -0.500000 0.415735
v 0.191342 0.500000 0.461940
v 0.191342 -0.500000 0.461940
v 0.097545 0.500000 0.490393
v 0.097545 -0.500000 0.490393
v 0.000000 0.500000 0.500000
v 0.000000 -0.500000 0.500000
v -0.097545 0.500000 0.490393
v -0.097545 -0.500000 0.490393
v -0.191342 0.500000 0.461940
v -0.191342 -0.500000 0.461940
v -0.277785 0.500000 0.415735
v -0.277785 -0.500000 0.415735
v -0.353554 0.500000 0.353553
v -0.353554 -0.500000 0.353553
v -0.415735 0.500000 0.277785
v -0.415735 -0.500000 0.277785
v -0.461940 0.500000 0.191341
v -0.461940 -0.500000 0.191341
v -0.490393 0.500000 0.097545
v -0.490393 -0.500000 0.097545
v -0.500000 0.500000 0.000000
v -0.500000 -0.500000 -0.000000
v -0.490393 0.500000 -0.097546
v -0.490393 -0.500000 -0.097546
v -0.461940 0.500000 -0.191342
v -0.461940 -0.500000 -0.191342
v -0.415734 0.500000 -0.277786
v -0.415734 -0.500000 -0.277786
v -0.353553 0.500000 -0.353554
v -0.353553 -0.500000 -0.353554
v -0.277785 0.500000 -0.415735
v -0.277785 -0.500000 -0.415735
v -0.191341 0.500000 -0.461940
v -0.191341 -0.500000 -0.461940
v -0.097544 0.500000 -0.490393
v -0.097544 -0.500000 -0.490393
vn 0.0980 0.0000 -0.9952
vn 0.2903 0.0000 -0.9569
vn 0.4714 0.0000 -0.8819
vn 0.6344 0.0000 -0.7730
vn 0.7730 0.0000 -0.6344
vn 0.8819 0.0000 -0.4714
vn 0.9569 0.0000 -0.2903
vn 0.9952 -0.0000 -0.0980
vn 0.9952 -0.0000 0.0980
vn 0.9569 0.0000 0.2903
vn 0.8819 -0.0000 0.4714
vn 0.7730 -0.0000 0.6344
vn 0.6344 -0.0000 0.7730
vn 0.4714 -0.0000 0.8819
vn 0.2903 -0.0000 0.9569
vn 0.0980 -0.0000 0.9952
vn -0.0980 -0.0000 0.9952
vn -0.2903 -0.0000 0.9569
vn -0.4714 -0.0000 0.8819
vn -0.6344 -0.0000 0.7730
vn -0.7730 -0.0000 0.6344
vn -0.8819 0.0000 0.4714
vn -0.9569 -0.0000 0.2903
vn -0.9952 0.0000 0.0980
vn -0.9952 0.0000 -0.0980
vn -0.9569 -0.0000 -0.2903
vn -0.8819 0.0000 -0.4714
vn -0.7730 0.0000 -0.6344
vn -0.6344 0.0000 -0.7730
vn -0.4714 0.0000 -0.8819
vn -0.0000 1.0000 0.0000
vn -0.2903 0.0000 -0.9569
vn -0.0980 0.0000 -0.9952
vn -0.0000 -1.0000 -0.0000
usemtl None.001
s 1
f 2//1 4//1 1//1
f 3//2 6//2 4//2
f 5//3 8//3 6//3
f 7//4 10//4 8//4
f 9//5 12//5 10//5
f 11//6 14//6 12//6
f 13//7 16//7 14//7
f 15//8 18//8 16//8
f 17//9 20//9 18//9
f 19//10 22//10 20//10
f 21//11 24//11 22//11
f 23//12 26//12 24//12
f 25//13 28//13 26//13
f 27//14 30//14 28//14
f 29//15 32//15 30//15
f 31//16 34//16 32//16
f 33//17 36//17 34//17
f 35//18 38//18 36//18
f 37//19 40//19 38//19
f 39//20 42//20 40//20
f 41//21 44//21 42//21
f 43//22 46//22 44//22
f 45//23 48//23 46//23
f 47//24 50//24 48//24
f 49//25 52//25 50//25
f 51//26 54//26 52//26
f 53//27 56//27 54//27
f 55//28 58//28 56//28
f 57//29 60//29 58//29
f 59//30 62//30 60//30
f 37//31 21//31 5//31
f 61//32 64//32 62//32
f 63//33 1//33 64//33
f 56//34 64//34 32//34
f 2//1 3//1 4//1
f 3//2 5//2 6//2
f 5//3 7//3 8//3
f 7//4 9//4 10//4
f 9//5 11//5 12//5
f 11//6 13//6 14//6
f 13//7 15//7 16//7
f 15//8 17//8 18//8
f 17//9 19//9 20//9
f 19//10 21//10 22//10
f 21//11 23//11 24//11
f 23//12 25//12 26//12
f 25//13 27//13 28//13
f 27//14 29//14 30//14
f 29//15 31//15 32//15
f 31//16 33//16 34//16
f 33//17 35//17 36//17
f 35//18 37//18 38//18
f 37//19 39//19 40//19
f 39//20 41//20 42//20
f 41//21 43//21 44//21
f 43//22 45//22 46//22
f 45//23 47//23 48//23
f 47//24 49//24 50//24
f 49//25 51//25 52//25
f 51//26 53//26 54//26
f 53//27 55//27 56//27
f 55//28 57//28 58//28
f 57//29 59//29 60//29
f 59//30 61//30 62//30
f 5//31 3//31 2//31
f 2//31 63//31 61//31
f 61//31 59//31 57//31
f 57//31 55//31 61//31
f 55//31 53//31 61//31
f 53//31 51//31 49//31
f 49//31 47//31 45//31
f 45//31 43//31 41//31
f 41//31 39//31 45//31
f 39//31 37//31 45//31
f 37//31 35//31 33//31
f 33//31 31//31 29//31
f 29//31 27//31 25//31
f 25//31 23//31 21//31
f 21//31 19//31 17//31
f 17//31 15//31 13//31
f 13//31 11//31 9//31
f 9//31 7//31 5//31
f 5//31 2//31 61//31
f 53//31 49//31 37//31
f 49//31 45//31 37//31
f 37//31 33//31 29//31
f 29//31 25//31 37//31
f 25//31 21//31 37//31
f 21//31 17//31 13//31
f 13//31 9//31 21//31
f 9//31 5//31 21//31
f 5//31 61//31 37//31
f 61//31 53//31 37//31
f 61//32 63//32 64//32
f 63//33 2//33 1//33
f 64//34 1//34 8//34
f 1//34 4//34 8//34
f 4//34 6//34 8//34
f 8//34 10//34 16//34
f 10//34 12//34 16//34
f 12//34 14//34 16//34
f 16//34 18//34 24//34
f 18//34 20//34 24//34
f 20//34 22//34 24//34
f 24//34 26//34 32//34
f 26//34 28//34 32//34
f 28//34 30//34 32//34
f 32//34 34//34 40//34
f 34//34 36//34 40//34
f 36//34 38//34 40//34
f 40//34 42//34 44//34
f 44//34 46//34 40//34
f 46//34 48//34 40//34
f 48//34 50//34 56//34
f 50//34 52//34 56//34
f 52//34 54//34 56//34
f 56//34 58//34 60//34
f 60//34 62//34 56//34
f 62//34 64//34 56//34
f 64//34 8//34 16//34
f 16//34 24//34 64//34
f 24//34 32//34 64//34
f 32//34 40//34 48//34
f 48//34 56//34 32//34
