# Blender v2.90.1 OBJ File: 'branches.blend'
# www.blender.org
mtllib Branch_Narrow_01.mtl
o Cylinder.001
v -0.000000 0.001924 -0.247646
v -0.135140 0.979708 -0.089207
v 0.175112 0.001924 -0.175112
v -0.107835 0.499296 -0.113303
v 0.247646 0.001924 0.000000
v 0.122896 0.522769 -0.098553
v 0.175112 0.001924 0.175112
v 0.038018 0.983516 -0.124473
v -0.000000 0.001924 0.247646
v 0.088740 1.458923 -0.021829
v -0.175112 0.001924 0.175112
v 0.037248 1.458923 -0.043157
v -0.247646 0.001924 -0.000000
v -0.046727 0.983516 -0.159575
v -0.175112 0.001924 -0.175112
v 0.014474 0.515580 -0.163094
v 0.003212 1.807537 -0.042599
v 0.003995 1.785943 -0.064492
v 0.039452 1.807087 -0.034716
v 0.049782 1.785940 -0.046082
v 0.054389 1.806909 0.001105
v 0.070208 1.785861 0.001035
v 0.039639 1.810865 0.031196
v 0.050123 1.794173 0.042597
v 0.003808 1.811237 0.045837
v 0.002923 1.789954 0.060394
v -0.030684 1.807588 0.035883
v -0.040768 1.786197 0.045122
v -0.045313 1.807788 0.000333
v -0.058586 1.786367 0.000282
v -0.030664 1.807644 -0.035198
v -0.040609 1.786243 -0.044417
v -0.011610 1.456893 -0.048765
v 0.112664 1.456114 0.027187
v 0.073121 0.983516 -0.039728
v 0.181111 0.520231 -0.001519
v 0.088740 1.458923 0.081157
v 0.038018 0.983516 0.045017
v 0.145929 0.527809 0.108586
v 0.036958 1.462017 0.101815
v -0.046727 0.983516 0.080120
v 0.020307 0.485990 0.189186
v -0.011610 1.456893 0.054221
v -0.135140 0.979708 0.080282
v -0.121749 0.475159 0.122450
v -0.032939 1.456893 0.002728
v -0.170242 0.979708 -0.004462
v -0.150876 0.504768 0.001626
vt 0.125000 0.863870
vt 0.000000 0.976282
vt 0.000000 0.863870
vt 0.750000 0.976282
vt 0.625000 0.863870
vt 0.750000 0.863870
vt 0.625000 0.976282
vt 0.500000 0.863870
vt 0.500000 0.976282
vt 0.375000 0.863870
vt 0.375000 0.976282
vt 0.250000 0.863870
vt 0.125000 0.976282
vt 1.000000 0.863870
vt 0.875000 0.976282
vt 0.875000 0.863870
vt 0.875000 0.625729
vt 0.750000 0.500000
vt 0.875000 0.500000
vt 0.580294 0.080294
vt 0.510000 0.250000
vt 0.580294 0.419706
vt 1.000000 0.976282
vt 0.900672 1.000000
vt 0.849328 1.000000
vt 0.775672 1.000000
vt 0.724328 1.000000
vt 0.650672 1.000000
vt 0.525672 1.000000
vt 0.400672 1.000000
vt 0.275672 1.000000
vt 0.250000 0.976282
vt 0.224328 1.000000
vt 0.150672 1.000000
vt 0.025672 1.000000
vt 0.250000 0.391420
vt 0.108581 0.250000
vt 0.250000 0.108580
vt 0.750000 0.744799
vt 0.750000 0.625729
vt 0.875000 0.744799
vt 1.000000 0.625729
vt 1.000000 0.500000
vt 1.000000 0.744799
vt 0.250000 0.500000
vt 0.125000 0.625729
vt 0.125000 0.500000
vt 0.250000 0.625729
vt 0.125000 0.744799
vt 0.250000 0.744799
vt 0.375000 0.625729
vt 0.375000 0.500000
vt 0.375000 0.744799
vt 0.500000 0.500000
vt 0.500000 0.744799
vt 0.500000 0.625729
vt 0.625000 0.500000
vt 0.625000 0.625729
vt 0.625000 0.744799
vt 0.000000 0.500000
vt 0.000000 0.744799
vt 0.000000 0.625729
vt 0.750000 0.490000
vt 0.919706 0.419706
vt 0.990000 0.250000
vt 0.919706 0.080294
vt 0.750000 0.010000
vt 0.974328 1.000000
vt 0.599328 1.000000
vt 0.474328 1.000000
vt 0.349328 1.000000
vt 0.099328 1.000000
vt 0.391419 0.250000
vt 0.349999 0.349999
vt 0.150001 0.349999
vt 0.150001 0.150001
vt 0.349999 0.150001
vn -0.4947 0.1188 -0.8609
vn -0.0291 0.3287 -0.9440
vn 0.2631 0.0736 -0.9619
vn 0.9401 0.3404 -0.0198
vn 0.6961 0.0155 0.7177
vn 0.9998 0.0188 0.0102
vn 0.6292 0.4188 0.6548
vn -0.1471 0.0420 0.9882
vn -0.0370 0.3132 0.9489
vn -0.8038 0.0744 0.5903
vn -0.6876 0.2345 0.6871
vn -0.9945 0.1048 0.0028
vn -0.6885 0.2562 -0.6784
vn 0.6509 0.3015 -0.6967
vn 0.7161 0.0514 -0.6961
vn 0.7183 0.1296 -0.6836
vn 0.8145 -0.5799 -0.0119
vn 0.5823 -0.5698 -0.5798
vn -0.5809 -0.5705 0.5806
vn -0.8260 -0.5635 -0.0061
vn -0.5864 -0.5610 -0.5843
vn 0.3695 0.8446 -0.3875
vn 0.5582 0.8287 -0.0408
vn 0.3486 0.8881 0.2996
vn -0.0136 0.8586 0.5123
vn -0.4349 0.7902 0.4317
vn -0.5782 0.8158 -0.0082
vn -0.9752 0.2214 -0.0029
vn -0.3602 0.8132 -0.4571
vn -0.0342 0.8895 -0.4557
vn 0.9964 0.0753 -0.0392
vn 0.9796 0.1690 -0.1086
vn 0.6742 0.0967 -0.7321
vn 0.0792 0.0937 -0.9924
vn -0.0061 -0.5674 -0.8234
vn -0.1580 0.1230 -0.9797
vn -0.7150 0.0806 -0.6944
vn -0.9959 0.0754 -0.0492
vn -0.8028 0.1127 -0.5855
vn -0.9933 0.1150 -0.0031
vn -0.7434 0.1294 0.6561
vn -0.5910 0.1107 0.7990
vn -0.0123 -0.5815 0.8134
vn 0.1469 0.0721 0.9865
vn 0.0488 0.1742 0.9835
vn 0.5722 -0.5886 0.5710
vn 0.7638 0.2027 0.6128
vn 0.6965 0.0681 0.7143
usemtl Material.002
s 1
f 33/1/1 18/2/2 12/3/3
f 22/4/4 37/5/5 34/6/6
f 24/7/7 40/8/8 37/5/5
f 26/9/9 43/10/10 40/8/8
f 28/11/11 46/12/12 43/10/10
f 46/12/12 32/13/13 33/1/1
f 12/14/3 20/15/14 10/16/15
f 6/17/16 5/18/17 3/19/18
f 10/16/15 22/4/4 34/6/6
f 11/20/19 13/21/20 15/22/21
f 18/23/2 19/24/22 20/15/14
f 22/4/4 19/25/22 21/26/23
f 24/7/7 21/27/23 23/28/24
f 24/7/7 25/29/25 26/9/9
f 26/9/9 27/30/26 28/11/11
f 28/11/11 29/31/27 30/32/28
f 32/13/13 29/33/27 31/34/29
f 32/13/13 17/35/30 18/2/2
f 17/36/30 29/37/27 25/38/25
f 6/17/16 35/39/31 36/40/32
f 10/16/15 35/39/31 8/41/33
f 16/42/34 3/19/18 1/43/35
f 16/42/34 8/41/33 6/17/16
f 12/14/3 8/41/33 14/44/36
f 13/45/20 4/46/37 15/47/21
f 48/48/38 2/49/39 4/46/37
f 46/12/12 2/49/39 47/50/40
f 45/51/41 13/45/20 11/52/19
f 44/53/42 48/48/38 45/51/41
f 44/53/42 46/12/12 47/50/40
f 9/54/43 45/51/41 11/52/19
f 41/55/44 45/51/41 42/56/45
f 41/55/44 43/10/10 44/53/42
f 7/57/46 42/56/45 9/54/43
f 39/58/47 41/55/44 42/56/45
f 38/59/48 40/8/8 41/55/44
f 5/18/17 39/58/47 7/57/46
f 35/39/31 39/58/47 36/40/32
f 34/6/6 38/59/48 35/39/31
f 4/46/37 1/60/35 15/47/21
f 4/46/37 14/61/36 16/62/34
f 33/1/1 14/61/36 2/49/39
f 33/1/1 32/13/13 18/2/2
f 22/4/4 24/7/7 37/5/5
f 24/7/7 26/9/9 40/8/8
f 26/9/9 28/11/11 43/10/10
f 28/11/11 30/32/28 46/12/12
f 46/12/12 30/32/28 32/13/13
f 12/14/3 18/23/2 20/15/14
f 6/17/16 36/40/32 5/18/17
f 10/16/15 20/15/14 22/4/4
f 15/22/21 1/63/35 3/64/18
f 3/64/18 5/65/17 15/22/21
f 5/65/17 7/66/46 15/22/21
f 7/66/46 9/67/43 15/22/21
f 9/67/43 11/20/19 15/22/21
f 18/23/2 17/68/30 19/24/22
f 22/4/4 20/15/14 19/25/22
f 24/7/7 22/4/4 21/27/23
f 24/7/7 23/69/24 25/29/25
f 26/9/9 25/70/25 27/30/26
f 28/11/11 27/71/26 29/31/27
f 32/13/13 30/32/28 29/33/27
f 32/13/13 31/72/29 17/35/30
f 21/73/23 19/74/22 17/36/30
f 17/36/30 31/75/29 29/37/27
f 29/37/27 27/76/26 25/38/25
f 25/38/25 23/77/24 17/36/30
f 23/77/24 21/73/23 17/36/30
f 6/17/16 8/41/33 35/39/31
f 10/16/15 34/6/6 35/39/31
f 16/42/34 6/17/16 3/19/18
f 16/42/34 14/44/36 8/41/33
f 12/14/3 10/16/15 8/41/33
f 13/45/20 48/48/38 4/46/37
f 48/48/38 47/50/40 2/49/39
f 46/12/12 33/1/1 2/49/39
f 45/51/41 48/48/38 13/45/20
f 44/53/42 47/50/40 48/48/38
f 44/53/42 43/10/10 46/12/12
f 9/54/43 42/56/45 45/51/41
f 41/55/44 44/53/42 45/51/41
f 41/55/44 40/8/8 43/10/10
f 7/57/46 39/58/47 42/56/45
f 39/58/47 38/59/48 41/55/44
f 38/59/48 37/5/5 40/8/8
f 5/18/17 36/40/32 39/58/47
f 35/39/31 38/59/48 39/58/47
f 34/6/6 37/5/5 38/59/48
f 4/46/37 16/62/34 1/60/35
f 4/46/37 2/49/39 14/61/36
f 33/1/1 12/3/3 14/61/36
